<?xml version="1.0" standalone="no"?><svg xmlns:xlink="http://www.w3.org/1999/xlink" xmlns="http://www.w3.org/2000/svg" viewBox="0 0 1280 682.6638958340097" preserveAspectRatio="xMaxYMax slice"><g transform="scale(1.0390622463226937)"><rect x="0" y="0" width="1314" height="657" fill="#009929"/><rect x="0" y="0" width="82.125" height="82.125" fill="#009929"/><rect x="0" y="0" width="41.06" height="41.06" fill="#009929"/><path d="M 0 41.06 A 41.06 41.06 0 0 0 41.06 0 L 0 0" fill="#009929"/><rect x="41.06" y="0" width="41.06" height="41.06" fill="#009929"/><path d="M 41.06 41.06 A 41.06 41.06 0 0 1  82.12 0 L 82.12 41.06" fill="#009929"/><rect x="0" y="41.06" width="41.06" height="41.06" fill="#2ab34e"/><path d="M 0 41.06 A 41.06 41.06 0 0 1  41.06 82.12 L 0 41.06 A 41.06 41.06 0 0 0 41.06 82.12" fill="#009929"/><rect x="41.06" y="41.06" width="41.06" height="41.06" fill="#73e18d"/><path d="M 41.06 41.06 A 41.06 41.06 0 0 1 82.12 82.12 L 41.06 82.12" fill="#009929"/><rect x="82.13" y="0" width="82.13" height="82.13" fill="#009929"/><path d="M 82.13 82.13 A 82.13 82.13 0 0 0 164.26 0 L 82.13 0" fill="#009929"/><rect x="164.25" y="0" width="82.125" height="82.125" fill="#009929"/><rect x="164.25" y="0" width="41.06" height="41.06" fill="#009929"/><path d="M 164.25 41.06 A 41.06 41.06 0 0 1  205.31 0 L 205.31 41.06" fill="#75e28f"/><rect x="205.31" y="0" width="41.06" height="41.06" fill="#95f6ab"/><path d="M 205.31 41.06 A 41.06 41.06 0 0 1  246.37 0 L 205.31 41.06 A 41.06 41.06 0 0 0 246.37 0" fill="#31b854"/><rect x="164.25" y="41.06" width="41.06" height="41.06" fill="#009929"/><path d="M 164.25 82.12 A 41.06 41.06 0 0 1  205.31 41.06 L 164.25 82.12 A 41.06 41.06 0 0 0 205.31 41.06" fill="#81ea9a"/><rect x="205.31" y="41.06" width="41.06" height="41.06" fill="#0ba033"/><path d="M 205.31 41.06 A 41.06 41.06 0 0 1 246.37 82.12 L 205.31 82.12" fill="#84ec9c"/><rect x="246.375" y="0" width="82.125" height="82.125" fill="#009929"/><rect x="246.38" y="0" width="41.06" height="41.06" fill="#009929"/><path d="M 246.38 41.06 A 41.06 41.06 0 0 1  287.44 0 L 246.38 41.06 A 41.06 41.06 0 0 0 287.44 0" fill="#46c566"/><rect x="287.44" y="0" width="41.06" height="41.06" fill="#81ea99"/><path d="M 287.44 0 A 41.06 41.06 0 0 1  328.5 41.06 L 287.44 0 A 41.06 41.06 0 0 0 328.5 41.06" fill="#009929"/><rect x="246.38" y="41.06" width="41.06" height="41.06" fill="#009929"/><path d="M 246.38 82.12 A 41.06 41.06 0 0 0 287.44 41.06 L 246.38 41.06" fill="#009929"/><rect x="287.44" y="41.06" width="41.06" height="41.06" fill="#009929"/><path d="M 287.44 41.06 A 41.06 41.06 0 0 1  328.5 82.12 L 287.44 41.06 A 41.06 41.06 0 0 0 328.5 82.12" fill="#009929"/><rect x="328.5" y="0" width="82.13" height="82.13" fill="#009929"/><path d="M 328.5 0 A 82.13 82.13 0 0 0 410.63 82.13 L 410.63 0" fill="#46c566"/><rect x="410.625" y="0" width="82.125" height="82.125" fill="#009929"/><rect x="410.63" y="0" width="41.06" height="41.06" fill="#009929"/><path d="M 410.63 0 A 41.06 41.06 0 0 1  451.69 41.06 L 410.63 0 A 41.06 41.06 0 0 0 451.69 41.06" fill="#009929"/><rect x="451.69" y="0" width="41.06" height="41.06" fill="#28b24c"/><path d="M 451.69 41.06 A 41.06 41.06 0 0 1  492.75 0 L 451.69 41.06 A 41.06 41.06 0 0 0 492.75 0" fill="#72e08c"/><rect x="410.63" y="41.06" width="41.06" height="41.06" fill="#62d77f"/><path d="M 410.63 82.12 A 41.06 41.06 0 0 1  451.69 41.06 L 410.63 82.12 A 41.06 41.06 0 0 0 451.69 41.06" fill="#009929"/><rect x="451.69" y="41.06" width="41.06" height="41.06" fill="#009929"/><path d="M 451.69 41.06 A 41.06 41.06 0 0 1 492.75 82.12 L 451.69 82.12" fill="#009929"/><rect x="492.75" y="0" width="82.125" height="82.125" fill="#009929"/><rect x="492.75" y="0" width="41.06" height="41.06" fill="#0ca033"/><path d="M 492.75 41.06 A 41.06 41.06 0 0 0 533.81 0 L 492.75 0" fill="#009929"/><rect x="533.81" y="0" width="41.06" height="41.06" fill="#009929"/><path d="M 533.81 41.06 A 41.06 41.06 0 0 0 574.8699999999999 0 L 533.81 0" fill="#2bb44e"/><rect x="492.75" y="41.06" width="41.06" height="41.06" fill="#8cf1a3"/><path d="M 492.75 82.12 A 41.06 41.06 0 0 1  533.81 41.06 L 533.81 82.12" fill="#009929"/><rect x="533.81" y="41.06" width="41.06" height="41.06" fill="#99f9ae"/><path d="M 533.81 41.06 A 41.06 41.06 0 0 0 574.8699999999999 82.12 L 574.8699999999999 41.06" fill="#83eb9b"/><rect x="574.88" y="0" width="82.13" height="82.13" fill="#98f8ae"/><path d="M 574.88 0 A 82.13 82.13 0 0 1  657.01 82.13 L 574.88 0 A 82.13 82.13 0 0 0 657.01 82.13" fill="#009929"/><rect x="657" y="0" width="82.13" height="82.13" fill="#0ca133"/><path d="M 657 82.13 A 82.13 82.13 0 0 1  739.13 0 L 739.13 82.13" fill="#009929"/><rect x="739.13" y="0" width="82.13" height="82.13" fill="#009929"/><path d="M 739.13 82.13 A 82.13 82.13 0 0 1  821.26 0 L 821.26 82.13" fill="#009929"/><rect x="821.25" y="0" width="82.13" height="82.13" fill="#72e18d"/><path d="M 821.25 0 A 82.13 82.13 0 0 0 903.38 82.13 L 903.38 0" fill="#8bf0a2"/><rect x="903.375" y="0" width="82.125" height="82.125" fill="#009929"/><rect x="903.38" y="0" width="41.06" height="41.06" fill="#009929"/><path d="M 903.38 41.06 A 41.06 41.06 0 0 1  944.44 0 L 903.38 41.06 A 41.06 41.06 0 0 0 944.44 0" fill="#2cb44f"/><rect x="944.44" y="0" width="41.06" height="41.06" fill="#009929"/><path d="M 944.44 0 A 41.06 41.06 0 0 1  985.5 41.06 L 944.44 0 A 41.06 41.06 0 0 0 985.5 41.06" fill="#009929"/><rect x="903.38" y="41.06" width="41.06" height="41.06" fill="#009929"/><path d="M 903.38 82.12 A 41.06 41.06 0 0 1  944.44 41.06 L 944.44 82.12" fill="#35ba57"/><rect x="944.44" y="41.06" width="41.06" height="41.06" fill="#009929"/><path d="M 944.44 82.12 A 41.06 41.06 0 0 1  985.5 41.06 L 944.44 82.12 A 41.06 41.06 0 0 0 985.5 41.06" fill="#009929"/><rect x="985.5" y="0" width="82.13" height="82.13" fill="#009929"/><path d="M 985.5 82.13 A 82.13 82.13 0 0 1  1067.63 0 L 985.5 82.13 A 82.13 82.13 0 0 0 1067.63 0" fill="#4cc96b"/><rect x="1067.63" y="0" width="82.13" height="82.13" fill="#009929"/><path d="M 1067.63 82.13 A 82.13 82.13 0 0 1  1149.7600000000002 0 L 1067.63 82.13 A 82.13 82.13 0 0 0 1149.7600000000002 0" fill="#009929"/><rect x="1149.75" y="0" width="82.13" height="82.13" fill="#009929"/><path d="M 1149.75 82.13 A 82.13 82.13 0 0 0 1231.88 0 L 1149.75 0" fill="#24af48"/><rect x="1231.875" y="0" width="82.125" height="82.125" fill="#009929"/><rect x="1231.88" y="0" width="41.06" height="41.06" fill="#009929"/><path d="M 1231.88 41.06 A 41.06 41.06 0 0 1  1272.94 0 L 1231.88 41.06 A 41.06 41.06 0 0 0 1272.94 0" fill="#68da84"/><rect x="1272.94" y="0" width="41.06" height="41.06" fill="#009929"/><path d="M 1272.94 41.06 A 41.06 41.06 0 0 0 1314 0 L 1272.94 0" fill="#16a73c"/><rect x="1231.88" y="41.06" width="41.06" height="41.06" fill="#009929"/><path d="M 1231.88 82.12 A 41.06 41.06 0 0 1  1272.94 41.06 L 1272.94 82.12" fill="#2bb44e"/><rect x="1272.94" y="41.06" width="41.06" height="41.06" fill="#29b34d"/><path d="M 1272.94 41.06 A 41.06 41.06 0 0 0 1314 82.12 L 1314 41.06" fill="#009929"/><rect x="0" y="82.13" width="82.13" height="82.13" fill="#6adc86"/><path d="M 0 82.13 A 82.13 82.13 0 0 0 82.13 164.26 L 82.13 82.13" fill="#009929"/><rect x="82.13" y="82.13" width="82.13" height="82.13" fill="#86ed9e"/><path d="M 82.13 82.13 A 82.13 82.13 0 0 1  164.26 164.26 L 82.13 82.13 A 82.13 82.13 0 0 0 164.26 164.26" fill="#0fa336"/><rect x="164.25" y="82.13" width="82.13" height="82.13" fill="#1baa40"/><path d="M 164.25 164.26 A 82.13 82.13 0 0 1  246.38 82.13 L 164.25 164.26 A 82.13 82.13 0 0 0 246.38 82.13" fill="#44c464"/><rect x="246.38" y="82.13" width="82.13" height="82.13" fill="#009929"/><path d="M 246.38 82.13 A 82.13 82.13 0 0 0 328.51 164.26 L 328.51 82.13" fill="#67d982"/><rect x="328.5" y="82.125" width="82.125" height="82.125" fill="#009929"/><rect x="328.5" y="82.13" width="41.06" height="41.06" fill="#95f6aa"/><path d="M 328.5 82.13 A 41.06 41.06 0 0 0 369.56 123.19 L 369.56 82.13" fill="#6adb85"/><rect x="369.56" y="82.13" width="41.06" height="41.06" fill="#2eb651"/><path d="M 369.56 123.19 A 41.06 41.06 0 0 0 410.62 82.13 L 369.56 82.13" fill="#009929"/><rect x="328.5" y="123.19" width="41.06" height="41.06" fill="#009929"/><path d="M 328.5 123.19 A 41.06 41.06 0 0 1  369.56 164.25 L 328.5 123.19 A 41.06 41.06 0 0 0 369.56 164.25" fill="#009929"/><rect x="369.56" y="123.19" width="41.06" height="41.06" fill="#009929"/><path d="M 369.56 164.25 A 41.06 41.06 0 0 1  410.62 123.19 L 369.56 164.25 A 41.06 41.06 0 0 0 410.62 123.19" fill="#43c363"/><rect x="410.625" y="82.125" width="82.125" height="82.125" fill="#009929"/><rect x="410.63" y="82.13" width="41.06" height="41.06" fill="#7be694"/><path d="M 410.63 82.13 A 41.06 41.06 0 0 1 451.69 123.19 L 410.63 123.19" fill="#009929"/><rect x="451.69" y="82.13" width="41.06" height="41.06" fill="#31b854"/><path d="M 451.69 123.19 A 41.06 41.06 0 0 1  492.75 82.13 L 492.75 123.19" fill="#009929"/><rect x="410.63" y="123.19" width="41.06" height="41.06" fill="#009929"/><path d="M 410.63 164.25 A 41.06 41.06 0 0 0 451.69 123.19 L 410.63 123.19" fill="#009929"/><rect x="451.69" y="123.19" width="41.06" height="41.06" fill="#74e28e"/><path d="M 451.69 164.25 A 41.06 41.06 0 0 1  492.75 123.19 L 492.75 164.25" fill="#59d176"/><rect x="492.75" y="82.13" width="82.13" height="82.13" fill="#009929"/><path d="M 492.75 164.26 A 82.13 82.13 0 0 0 574.88 82.13 L 492.75 82.13" fill="#1eac43"/><rect x="574.875" y="82.125" width="82.125" height="82.125" fill="#009929"/><rect x="574.88" y="82.13" width="41.06" height="41.06" fill="#009929"/><path d="M 574.88 82.13 A 41.06 41.06 0 0 1  615.94 123.19 L 574.88 82.13 A 41.06 41.06 0 0 0 615.94 123.19" fill="#009929"/><rect x="615.94" y="82.13" width="41.06" height="41.06" fill="#009929"/><path d="M 615.94 82.13 A 41.06 41.06 0 0 1  657 123.19 L 615.94 82.13 A 41.06 41.06 0 0 0 657 123.19" fill="#009929"/><rect x="574.88" y="123.19" width="41.06" height="41.06" fill="#2ab34d"/><path d="M 574.88 164.25 A 41.06 41.06 0 0 0 615.94 123.19 L 574.88 123.19" fill="#009929"/><rect x="615.94" y="123.19" width="41.06" height="41.06" fill="#009929"/><path d="M 615.94 123.19 A 41.06 41.06 0 0 1  657 164.25 L 615.94 123.19 A 41.06 41.06 0 0 0 657 164.25" fill="#009929"/><rect x="657" y="82.125" width="82.125" height="82.125" fill="#009929"/><rect x="657" y="82.13" width="41.06" height="41.06" fill="#009929"/><path d="M 657 123.19 A 41.06 41.06 0 0 0 698.06 82.13 L 657 82.13" fill="#009929"/><rect x="698.06" y="82.13" width="41.06" height="41.06" fill="#009929"/><path d="M 698.06 82.13 A 41.06 41.06 0 0 1 739.1199999999999 123.19 L 698.06 123.19" fill="#009929"/><rect x="657" y="123.19" width="41.06" height="41.06" fill="#009929"/><path d="M 657 164.25 A 41.06 41.06 0 0 0 698.06 123.19 L 657 123.19" fill="#009929"/><rect x="698.06" y="123.19" width="41.06" height="41.06" fill="#51cc6f"/><path d="M 698.06 123.19 A 41.06 41.06 0 0 0 739.1199999999999 164.25 L 739.1199999999999 123.19" fill="#39bd5b"/><rect x="739.13" y="82.13" width="82.13" height="82.13" fill="#52cc71"/><path d="M 739.13 82.13 A 82.13 82.13 0 0 0 821.26 164.26 L 821.26 82.13" fill="#8aefa1"/><rect x="821.25" y="82.13" width="82.13" height="82.13" fill="#43c364"/><path d="M 821.25 82.13 A 82.13 82.13 0 0 1 903.38 164.26 L 821.25 164.26" fill="#1eac43"/><rect x="903.38" y="82.13" width="82.13" height="82.13" fill="#8ff3a6"/><path d="M 903.38 164.26 A 82.13 82.13 0 0 1  985.51 82.13 L 903.38 164.26 A 82.13 82.13 0 0 0 985.51 82.13" fill="#009929"/><rect x="985.5" y="82.125" width="82.125" height="82.125" fill="#009929"/><rect x="985.5" y="82.13" width="41.06" height="41.06" fill="#009929"/><path d="M 985.5 82.13 A 41.06 41.06 0 0 1 1026.56 123.19 L 985.5 123.19" fill="#009929"/><rect x="1026.56" y="82.13" width="41.06" height="41.06" fill="#26b14b"/><path d="M 1026.56 82.13 A 41.06 41.06 0 0 0 1067.62 123.19 L 1067.62 82.13" fill="#0fa236"/><rect x="985.5" y="123.19" width="41.06" height="41.06" fill="#23af47"/><path d="M 985.5 164.25 A 41.06 41.06 0 0 1  1026.56 123.19 L 1026.56 164.25" fill="#009929"/><rect x="1026.56" y="123.19" width="41.06" height="41.06" fill="#6adb85"/><path d="M 1026.56 123.19 A 41.06 41.06 0 0 0 1067.62 164.25 L 1067.62 123.19" fill="#009929"/><rect x="1067.63" y="82.13" width="82.13" height="82.13" fill="#009929"/><path d="M 1067.63 82.13 A 82.13 82.13 0 0 1 1149.7600000000002 164.26 L 1067.63 164.26" fill="#5bd278"/><rect x="1149.75" y="82.13" width="82.13" height="82.13" fill="#009929"/><path d="M 1149.75 164.26 A 82.13 82.13 0 0 1  1231.88 82.13 L 1231.88 164.26" fill="#009929"/><rect x="1231.88" y="82.13" width="82.13" height="82.13" fill="#73e18d"/><path d="M 1231.88 164.26 A 82.13 82.13 0 0 1  1314.0100000000002 82.13 L 1314.0100000000002 164.26" fill="#009929"/><rect x="0" y="164.25" width="82.13" height="82.13" fill="#009929"/><path d="M 0 246.38 A 82.13 82.13 0 0 1  82.13 164.25 L 0 246.38 A 82.13 82.13 0 0 0 82.13 164.25" fill="#7ee897"/><rect x="82.13" y="164.25" width="82.13" height="82.13" fill="#009929"/><path d="M 82.13 164.25 A 82.13 82.13 0 0 1 164.26 246.38 L 82.13 246.38" fill="#009929"/><rect x="164.25" y="164.25" width="82.13" height="82.13" fill="#009929"/><path d="M 164.25 246.38 A 82.13 82.13 0 0 1  246.38 164.25 L 164.25 246.38 A 82.13 82.13 0 0 0 246.38 164.25" fill="#009929"/><rect x="246.375" y="164.25" width="82.125" height="82.125" fill="#009929"/><rect x="246.38" y="164.25" width="41.06" height="41.06" fill="#70df8a"/><path d="M 246.38 205.31 A 41.06 41.06 0 0 1  287.44 164.25 L 287.44 205.31" fill="#009929"/><rect x="287.44" y="164.25" width="41.06" height="41.06" fill="#029b2b"/><path d="M 287.44 205.31 A 41.06 41.06 0 0 1  328.5 164.25 L 328.5 205.31" fill="#0ca133"/><rect x="246.38" y="205.31" width="41.06" height="41.06" fill="#13a539"/><path d="M 246.38 246.37 A 41.06 41.06 0 0 0 287.44 205.31 L 246.38 205.31" fill="#009929"/><rect x="287.44" y="205.31" width="41.06" height="41.06" fill="#009929"/><path d="M 287.44 246.37 A 41.06 41.06 0 0 0 328.5 205.31 L 287.44 205.31" fill="#79e492"/><rect x="328.5" y="164.25" width="82.125" height="82.125" fill="#009929"/><rect x="328.5" y="164.25" width="41.06" height="41.06" fill="#3abe5c"/><path d="M 328.5 164.25 A 41.06 41.06 0 0 1  369.56 205.31 L 328.5 164.25 A 41.06 41.06 0 0 0 369.56 205.31" fill="#009929"/><rect x="369.56" y="164.25" width="41.06" height="41.06" fill="#029a2a"/><path d="M 369.56 205.31 A 41.06 41.06 0 0 0 410.62 164.25 L 369.56 164.25" fill="#009929"/><rect x="328.5" y="205.31" width="41.06" height="41.06" fill="#89efa0"/><path d="M 328.5 205.31 A 41.06 41.06 0 0 1  369.56 246.37 L 328.5 205.31 A 41.06 41.06 0 0 0 369.56 246.37" fill="#009929"/><rect x="369.56" y="205.31" width="41.06" height="41.06" fill="#009929"/><path d="M 369.56 205.31 A 41.06 41.06 0 0 1 410.62 246.37 L 369.56 246.37" fill="#24b049"/><rect x="410.63" y="164.25" width="82.13" height="82.13" fill="#7fe998"/><path d="M 410.63 164.25 A 82.13 82.13 0 0 0 492.76 246.38 L 492.76 164.25" fill="#009929"/><rect x="492.75" y="164.25" width="82.125" height="82.125" fill="#009929"/><rect x="492.75" y="164.25" width="41.06" height="41.06" fill="#009929"/><path d="M 492.75 164.25 A 41.06 41.06 0 0 1  533.81 205.31 L 492.75 164.25 A 41.06 41.06 0 0 0 533.81 205.31" fill="#82ea9a"/><rect x="533.81" y="164.25" width="41.06" height="41.06" fill="#009929"/><path d="M 533.81 205.31 A 41.06 41.06 0 0 0 574.8699999999999 164.25 L 533.81 164.25" fill="#82eb9a"/><rect x="492.75" y="205.31" width="41.06" height="41.06" fill="#009929"/><path d="M 492.75 246.37 A 41.06 41.06 0 0 0 533.81 205.31 L 492.75 205.31" fill="#009929"/><rect x="533.81" y="205.31" width="41.06" height="41.06" fill="#009929"/><path d="M 533.81 246.37 A 41.06 41.06 0 0 1  574.8699999999999 205.31 L 574.8699999999999 246.37" fill="#3abd5b"/><rect x="574.88" y="164.25" width="82.13" height="82.13" fill="#009929"/><path d="M 574.88 246.38 A 82.13 82.13 0 0 1  657.01 164.25 L 657.01 246.38" fill="#009929"/><rect x="657" y="164.25" width="82.13" height="82.13" fill="#2eb651"/><path d="M 657 164.25 A 82.13 82.13 0 0 1  739.13 246.38 L 657 164.25 A 82.13 82.13 0 0 0 739.13 246.38" fill="#019a2a"/><rect x="739.13" y="164.25" width="82.13" height="82.13" fill="#009929"/><path d="M 739.13 164.25 A 82.13 82.13 0 0 1  821.26 246.38 L 739.13 164.25 A 82.13 82.13 0 0 0 821.26 246.38" fill="#8ff2a5"/><rect x="821.25" y="164.25" width="82.125" height="82.125" fill="#009929"/><rect x="821.25" y="164.25" width="41.06" height="41.06" fill="#009929"/><path d="M 821.25 164.25 A 41.06 41.06 0 0 1 862.31 205.31 L 821.25 205.31" fill="#15a63b"/><rect x="862.31" y="164.25" width="41.06" height="41.06" fill="#77e491"/><path d="M 862.31 205.31 A 41.06 41.06 0 0 1  903.3699999999999 164.25 L 862.31 205.31 A 41.06 41.06 0 0 0 903.3699999999999 164.25" fill="#009929"/><rect x="821.25" y="205.31" width="41.06" height="41.06" fill="#7ae593"/><path d="M 821.25 246.37 A 41.06 41.06 0 0 1  862.31 205.31 L 862.31 246.37" fill="#009929"/><rect x="862.31" y="205.31" width="41.06" height="41.06" fill="#8af0a2"/><path d="M 862.31 246.37 A 41.06 41.06 0 0 0 903.3699999999999 205.31 L 862.31 205.31" fill="#009929"/><rect x="903.375" y="164.25" width="82.125" height="82.125" fill="#009929"/><rect x="903.38" y="164.25" width="41.06" height="41.06" fill="#009929"/><path d="M 903.38 205.31 A 41.06 41.06 0 0 1  944.44 164.25 L 903.38 205.31 A 41.06 41.06 0 0 0 944.44 164.25" fill="#009929"/><rect x="944.44" y="164.25" width="41.06" height="41.06" fill="#009929"/><path d="M 944.44 164.25 A 41.06 41.06 0 0 1  985.5 205.31 L 944.44 164.25 A 41.06 41.06 0 0 0 985.5 205.31" fill="#009929"/><rect x="903.38" y="205.31" width="41.06" height="41.06" fill="#009929"/><path d="M 903.38 246.37 A 41.06 41.06 0 0 1  944.44 205.31 L 944.44 246.37" fill="#009929"/><rect x="944.44" y="205.31" width="41.06" height="41.06" fill="#009929"/><path d="M 944.44 246.37 A 41.06 41.06 0 0 1  985.5 205.31 L 944.44 246.37 A 41.06 41.06 0 0 0 985.5 205.31" fill="#009929"/><rect x="985.5" y="164.25" width="82.125" height="82.125" fill="#009929"/><rect x="985.5" y="164.25" width="41.06" height="41.06" fill="#57d075"/><path d="M 985.5 205.31 A 41.06 41.06 0 0 1  1026.56 164.25 L 985.5 205.31 A 41.06 41.06 0 0 0 1026.56 164.25" fill="#009929"/><rect x="1026.56" y="164.25" width="41.06" height="41.06" fill="#8df1a3"/><path d="M 1026.56 164.25 A 41.06 41.06 0 0 0 1067.62 205.31 L 1067.62 164.25" fill="#009929"/><rect x="985.5" y="205.31" width="41.06" height="41.06" fill="#42c262"/><path d="M 985.5 246.37 A 41.06 41.06 0 0 1  1026.56 205.31 L 1026.56 246.37" fill="#27b14b"/><rect x="1026.56" y="205.31" width="41.06" height="41.06" fill="#0ea236"/><path d="M 1026.56 205.31 A 41.06 41.06 0 0 1 1067.62 246.37 L 1026.56 246.37" fill="#009929"/><rect x="1067.63" y="164.25" width="82.13" height="82.13" fill="#1dab43"/><path d="M 1067.63 164.25 A 82.13 82.13 0 0 0 1149.7600000000002 246.38 L 1149.7600000000002 164.25" fill="#009929"/><rect x="1149.75" y="164.25" width="82.13" height="82.13" fill="#009929"/><path d="M 1149.75 246.38 A 82.13 82.13 0 0 1  1231.88 164.25 L 1231.88 246.38" fill="#009929"/><rect x="1231.875" y="164.25" width="82.125" height="82.125" fill="#009929"/><rect x="1231.88" y="164.25" width="41.06" height="41.06" fill="#009929"/><path d="M 1231.88 205.31 A 41.06 41.06 0 0 0 1272.94 164.25 L 1231.88 164.25" fill="#009929"/><rect x="1272.94" y="164.25" width="41.06" height="41.06" fill="#009929"/><path d="M 1272.94 164.25 A 41.06 41.06 0 0 1  1314 205.31 L 1272.94 164.25 A 41.06 41.06 0 0 0 1314 205.31" fill="#009929"/><rect x="1231.88" y="205.31" width="41.06" height="41.06" fill="#90f3a6"/><path d="M 1231.88 205.31 A 41.06 41.06 0 0 0 1272.94 246.37 L 1272.94 205.31" fill="#009929"/><rect x="1272.94" y="205.31" width="41.06" height="41.06" fill="#009929"/><path d="M 1272.94 246.37 A 41.06 41.06 0 0 1  1314 205.31 L 1272.94 246.37 A 41.06 41.06 0 0 0 1314 205.31" fill="#97f8ad"/><rect x="0" y="246.38" width="82.13" height="82.13" fill="#009929"/><path d="M 0 328.51 A 82.13 82.13 0 0 0 82.13 246.38 L 0 246.38" fill="#099e31"/><rect x="82.125" y="246.375" width="82.125" height="82.125" fill="#009929"/><rect x="82.13" y="246.38" width="41.06" height="41.06" fill="#3dbf5e"/><path d="M 82.13 287.44 A 41.06 41.06 0 0 1  123.19 246.38 L 123.19 287.44" fill="#009929"/><rect x="123.19" y="246.38" width="41.06" height="41.06" fill="#65d881"/><path d="M 123.19 246.38 A 41.06 41.06 0 0 1  164.25 287.44 L 123.19 246.38 A 41.06 41.06 0 0 0 164.25 287.44" fill="#009929"/><rect x="82.13" y="287.44" width="41.06" height="41.06" fill="#26b14a"/><path d="M 82.13 287.44 A 41.06 41.06 0 0 1 123.19 328.5 L 82.13 328.5" fill="#009929"/><rect x="123.19" y="287.44" width="41.06" height="41.06" fill="#76e390"/><path d="M 123.19 287.44 A 41.06 41.06 0 0 1 164.25 328.5 L 123.19 328.5" fill="#009929"/><rect x="164.25" y="246.38" width="82.13" height="82.13" fill="#009929"/><path d="M 164.25 246.38 A 82.13 82.13 0 0 1 246.38 328.51 L 164.25 328.51" fill="#009929"/><rect x="246.375" y="246.375" width="82.125" height="82.125" fill="#009929"/><rect x="246.38" y="246.38" width="41.06" height="41.06" fill="#14a53a"/><path d="M 246.38 287.44 A 41.06 41.06 0 0 1  287.44 246.38 L 246.38 287.44 A 41.06 41.06 0 0 0 287.44 246.38" fill="#009929"/><rect x="287.44" y="246.38" width="41.06" height="41.06" fill="#009929"/><path d="M 287.44 246.38 A 41.06 41.06 0 0 1 328.5 287.44 L 287.44 287.44" fill="#009929"/><rect x="246.38" y="287.44" width="41.06" height="41.06" fill="#009929"/><path d="M 246.38 328.5 A 41.06 41.06 0 0 1  287.44 287.44 L 246.38 328.5 A 41.06 41.06 0 0 0 287.44 287.44" fill="#009929"/><rect x="287.44" y="287.44" width="41.06" height="41.06" fill="#5bd278"/><path d="M 287.44 287.44 A 41.06 41.06 0 0 1 328.5 328.5 L 287.44 328.5" fill="#12a439"/><rect x="328.5" y="246.375" width="82.125" height="82.125" fill="#009929"/><rect x="328.5" y="246.38" width="41.06" height="41.06" fill="#069d2f"/><path d="M 328.5 246.38 A 41.06 41.06 0 0 1 369.56 287.44 L 328.5 287.44" fill="#7ae593"/><rect x="369.56" y="246.38" width="41.06" height="41.06" fill="#009929"/><path d="M 369.56 246.38 A 41.06 41.06 0 0 1  410.62 287.44 L 369.56 246.38 A 41.06 41.06 0 0 0 410.62 287.44" fill="#009929"/><rect x="328.5" y="287.44" width="41.06" height="41.06" fill="#009929"/><path d="M 328.5 287.44 A 41.06 41.06 0 0 0 369.56 328.5 L 369.56 287.44" fill="#009929"/><rect x="369.56" y="287.44" width="41.06" height="41.06" fill="#009929"/><path d="M 369.56 287.44 A 41.06 41.06 0 0 1 410.62 328.5 L 369.56 328.5" fill="#94f6aa"/><rect x="410.625" y="246.375" width="82.125" height="82.125" fill="#009929"/><rect x="410.63" y="246.38" width="41.06" height="41.06" fill="#009929"/><path d="M 410.63 246.38 A 41.06 41.06 0 0 1 451.69 287.44 L 410.63 287.44" fill="#15a63c"/><rect x="451.69" y="246.38" width="41.06" height="41.06" fill="#72e08c"/><path d="M 451.69 246.38 A 41.06 41.06 0 0 1 492.75 287.44 L 451.69 287.44" fill="#009929"/><rect x="410.63" y="287.44" width="41.06" height="41.06" fill="#009929"/><path d="M 410.63 328.5 A 41.06 41.06 0 0 1  451.69 287.44 L 410.63 328.5 A 41.06 41.06 0 0 0 451.69 287.44" fill="#5ed47b"/><rect x="451.69" y="287.44" width="41.06" height="41.06" fill="#83eb9b"/><path d="M 451.69 287.44 A 41.06 41.06 0 0 1  492.75 328.5 L 451.69 287.44 A 41.06 41.06 0 0 0 492.75 328.5" fill="#73e18d"/><rect x="492.75" y="246.375" width="82.125" height="82.125" fill="#009929"/><rect x="492.75" y="246.38" width="41.06" height="41.06" fill="#009929"/><path d="M 492.75 287.44 A 41.06 41.06 0 0 1  533.81 246.38 L 533.81 287.44" fill="#64d880"/><rect x="533.81" y="246.38" width="41.06" height="41.06" fill="#1eac43"/><path d="M 533.81 287.44 A 41.06 41.06 0 0 0 574.8699999999999 246.38 L 533.81 246.38" fill="#21ae46"/><rect x="492.75" y="287.44" width="41.06" height="41.06" fill="#74e18e"/><path d="M 492.75 287.44 A 41.06 41.06 0 0 1  533.81 328.5 L 492.75 287.44 A 41.06 41.06 0 0 0 533.81 328.5" fill="#009929"/><rect x="533.81" y="287.44" width="41.06" height="41.06" fill="#009929"/><path d="M 533.81 287.44 A 41.06 41.06 0 0 0 574.8699999999999 328.5 L 574.8699999999999 287.44" fill="#049b2c"/><rect x="574.88" y="246.38" width="82.13" height="82.13" fill="#009929"/><path d="M 574.88 246.38 A 82.13 82.13 0 0 1 657.01 328.51 L 574.88 328.51" fill="#009929"/><rect x="657" y="246.375" width="82.125" height="82.125" fill="#009929"/><rect x="657" y="246.38" width="41.06" height="41.06" fill="#009929"/><path d="M 657 287.44 A 41.06 41.06 0 0 1  698.06 246.38 L 657 287.44 A 41.06 41.06 0 0 0 698.06 246.38" fill="#009929"/><rect x="698.06" y="246.38" width="41.06" height="41.06" fill="#26b14a"/><path d="M 698.06 287.44 A 41.06 41.06 0 0 1  739.1199999999999 246.38 L 739.1199999999999 287.44" fill="#009929"/><rect x="657" y="287.44" width="41.06" height="41.06" fill="#009929"/><path d="M 657 287.44 A 41.06 41.06 0 0 1  698.06 328.5 L 657 287.44 A 41.06 41.06 0 0 0 698.06 328.5" fill="#009929"/><rect x="698.06" y="287.44" width="41.06" height="41.06" fill="#009929"/><path d="M 698.06 287.44 A 41.06 41.06 0 0 0 739.1199999999999 328.5 L 739.1199999999999 287.44" fill="#009929"/><rect x="739.13" y="246.38" width="82.13" height="82.13" fill="#9afaaf"/><path d="M 739.13 328.51 A 82.13 82.13 0 0 1  821.26 246.38 L 739.13 328.51 A 82.13 82.13 0 0 0 821.26 246.38" fill="#009929"/><rect x="821.25" y="246.375" width="82.125" height="82.125" fill="#009929"/><rect x="821.25" y="246.38" width="41.06" height="41.06" fill="#41c161"/><path d="M 821.25 287.44 A 41.06 41.06 0 0 0 862.31 246.38 L 821.25 246.38" fill="#009929"/><rect x="862.31" y="246.38" width="41.06" height="41.06" fill="#009929"/><path d="M 862.31 287.44 A 41.06 41.06 0 0 0 903.3699999999999 246.38 L 862.31 246.38" fill="#2fb652"/><rect x="821.25" y="287.44" width="41.06" height="41.06" fill="#7ae694"/><path d="M 821.25 328.5 A 41.06 41.06 0 0 0 862.31 287.44 L 821.25 287.44" fill="#7ee896"/><rect x="862.31" y="287.44" width="41.06" height="41.06" fill="#66d982"/><path d="M 862.31 328.5 A 41.06 41.06 0 0 1  903.3699999999999 287.44 L 903.3699999999999 328.5" fill="#53cd72"/><rect x="903.375" y="246.375" width="82.125" height="82.125" fill="#009929"/><rect x="903.38" y="246.38" width="41.06" height="41.06" fill="#009929"/><path d="M 903.38 246.38 A 41.06 41.06 0 0 0 944.44 287.44 L 944.44 246.38" fill="#009929"/><rect x="944.44" y="246.38" width="41.06" height="41.06" fill="#009929"/><path d="M 944.44 246.38 A 41.06 41.06 0 0 1 985.5 287.44 L 944.44 287.44" fill="#37bb59"/><rect x="903.38" y="287.44" width="41.06" height="41.06" fill="#31b753"/><path d="M 903.38 328.5 A 41.06 41.06 0 0 0 944.44 287.44 L 903.38 287.44" fill="#009929"/><rect x="944.44" y="287.44" width="41.06" height="41.06" fill="#009929"/><path d="M 944.44 328.5 A 41.06 41.06 0 0 0 985.5 287.44 L 944.44 287.44" fill="#18a83e"/><rect x="985.5" y="246.375" width="82.125" height="82.125" fill="#009929"/><rect x="985.5" y="246.38" width="41.06" height="41.06" fill="#009929"/><path d="M 985.5 246.38 A 41.06 41.06 0 0 1  1026.56 287.44 L 985.5 246.38 A 41.06 41.06 0 0 0 1026.56 287.44" fill="#009929"/><rect x="1026.56" y="246.38" width="41.06" height="41.06" fill="#009929"/><path d="M 1026.56 246.38 A 41.06 41.06 0 0 0 1067.62 287.44 L 1067.62 246.38" fill="#39bc5a"/><rect x="985.5" y="287.44" width="41.06" height="41.06" fill="#0ea235"/><path d="M 985.5 328.5 A 41.06 41.06 0 0 1  1026.56 287.44 L 985.5 328.5 A 41.06 41.06 0 0 0 1026.56 287.44" fill="#78e491"/><rect x="1026.56" y="287.44" width="41.06" height="41.06" fill="#009929"/><path d="M 1026.56 328.5 A 41.06 41.06 0 0 1  1067.62 287.44 L 1067.62 328.5" fill="#009929"/><rect x="1067.63" y="246.38" width="82.13" height="82.13" fill="#009929"/><path d="M 1067.63 328.51 A 82.13 82.13 0 0 0 1149.7600000000002 246.38 L 1067.63 246.38" fill="#1baa41"/><rect x="1149.75" y="246.38" width="82.13" height="82.13" fill="#009929"/><path d="M 1149.75 246.38 A 82.13 82.13 0 0 0 1231.88 328.51 L 1231.88 246.38" fill="#44c364"/><rect x="1231.875" y="246.375" width="82.125" height="82.125" fill="#009929"/><rect x="1231.88" y="246.38" width="41.06" height="41.06" fill="#42c263"/><path d="M 1231.88 246.38 A 41.06 41.06 0 0 0 1272.94 287.44 L 1272.94 246.38" fill="#5ed47b"/><rect x="1272.94" y="246.38" width="41.06" height="41.06" fill="#009929"/><path d="M 1272.94 287.44 A 41.06 41.06 0 0 1  1314 246.38 L 1272.94 287.44 A 41.06 41.06 0 0 0 1314 246.38" fill="#29b34d"/><rect x="1231.88" y="287.44" width="41.06" height="41.06" fill="#48c668"/><path d="M 1231.88 328.5 A 41.06 41.06 0 0 0 1272.94 287.44 L 1231.88 287.44" fill="#079d2f"/><rect x="1272.94" y="287.44" width="41.06" height="41.06" fill="#009929"/><path d="M 1272.94 287.44 A 41.06 41.06 0 0 1 1314 328.5 L 1272.94 328.5" fill="#009929"/><rect x="0" y="328.5" width="82.13" height="82.13" fill="#3ec05f"/><path d="M 0 410.63 A 82.13 82.13 0 0 0 82.13 328.5 L 0 328.5" fill="#009929"/><rect x="82.13" y="328.5" width="82.13" height="82.13" fill="#009929"/><path d="M 82.13 328.5 A 82.13 82.13 0 0 1  164.26 410.63 L 82.13 328.5 A 82.13 82.13 0 0 0 164.26 410.63" fill="#009929"/><rect x="164.25" y="328.5" width="82.125" height="82.125" fill="#009929"/><rect x="164.25" y="328.5" width="41.06" height="41.06" fill="#009929"/><path d="M 164.25 369.56 A 41.06 41.06 0 0 0 205.31 328.5 L 164.25 328.5" fill="#37bc59"/><rect x="205.31" y="328.5" width="41.06" height="41.06" fill="#009929"/><path d="M 205.31 328.5 A 41.06 41.06 0 0 0 246.37 369.56 L 246.37 328.5" fill="#009929"/><rect x="164.25" y="369.56" width="41.06" height="41.06" fill="#009929"/><path d="M 164.25 410.62 A 41.06 41.06 0 0 0 205.31 369.56 L 164.25 369.56" fill="#6bdc86"/><rect x="205.31" y="369.56" width="41.06" height="41.06" fill="#89efa0"/><path d="M 205.31 369.56 A 41.06 41.06 0 0 0 246.37 410.62 L 246.37 369.56" fill="#1eac43"/><rect x="246.375" y="328.5" width="82.125" height="82.125" fill="#009929"/><rect x="246.38" y="328.5" width="41.06" height="41.06" fill="#2bb44e"/><path d="M 246.38 369.56 A 41.06 41.06 0 0 0 287.44 328.5 L 246.38 328.5" fill="#22ae47"/><rect x="287.44" y="328.5" width="41.06" height="41.06" fill="#099f31"/><path d="M 287.44 369.56 A 41.06 41.06 0 0 1  328.5 328.5 L 287.44 369.56 A 41.06 41.06 0 0 0 328.5 328.5" fill="#67da83"/><rect x="246.38" y="369.56" width="41.06" height="41.06" fill="#7ee897"/><path d="M 246.38 369.56 A 41.06 41.06 0 0 1 287.44 410.62 L 246.38 410.62" fill="#1eac43"/><rect x="287.44" y="369.56" width="41.06" height="41.06" fill="#009929"/><path d="M 287.44 410.62 A 41.06 41.06 0 0 1  328.5 369.56 L 287.44 410.62 A 41.06 41.06 0 0 0 328.5 369.56" fill="#45c465"/><rect x="328.5" y="328.5" width="82.13" height="82.13" fill="#18a83e"/><path d="M 328.5 410.63 A 82.13 82.13 0 0 0 410.63 328.5 L 328.5 328.5" fill="#009929"/><rect x="410.63" y="328.5" width="82.13" height="82.13" fill="#009929"/><path d="M 410.63 328.5 A 82.13 82.13 0 0 1  492.76 410.63 L 410.63 328.5 A 82.13 82.13 0 0 0 492.76 410.63" fill="#24b049"/><rect x="492.75" y="328.5" width="82.13" height="82.13" fill="#57d075"/><path d="M 492.75 328.5 A 82.13 82.13 0 0 0 574.88 410.63 L 574.88 328.5" fill="#009929"/><rect x="574.875" y="328.5" width="82.125" height="82.125" fill="#009929"/><rect x="574.88" y="328.5" width="41.06" height="41.06" fill="#9af9af"/><path d="M 574.88 369.56 A 41.06 41.06 0 0 1  615.94 328.5 L 615.94 369.56" fill="#009929"/><rect x="615.94" y="328.5" width="41.06" height="41.06" fill="#009929"/><path d="M 615.94 369.56 A 41.06 41.06 0 0 0 657 328.5 L 615.94 328.5" fill="#009929"/><rect x="574.88" y="369.56" width="41.06" height="41.06" fill="#009929"/><path d="M 574.88 369.56 A 41.06 41.06 0 0 0 615.94 410.62 L 615.94 369.56" fill="#009929"/><rect x="615.94" y="369.56" width="41.06" height="41.06" fill="#50cb6e"/><path d="M 615.94 410.62 A 41.06 41.06 0 0 1  657 369.56 L 657 410.62" fill="#009929"/><rect x="657" y="328.5" width="82.13" height="82.13" fill="#85ec9d"/><path d="M 657 328.5 A 82.13 82.13 0 0 0 739.13 410.63 L 739.13 328.5" fill="#7fe897"/><rect x="739.13" y="328.5" width="82.13" height="82.13" fill="#45c465"/><path d="M 739.13 328.5 A 82.13 82.13 0 0 0 821.26 410.63 L 821.26 328.5" fill="#18a83e"/><rect x="821.25" y="328.5" width="82.13" height="82.13" fill="#099e31"/><path d="M 821.25 410.63 A 82.13 82.13 0 0 1  903.38 328.5 L 903.38 410.63" fill="#4dc96c"/><rect x="903.38" y="328.5" width="82.13" height="82.13" fill="#9af9af"/><path d="M 903.38 328.5 A 82.13 82.13 0 0 0 985.51 410.63 L 985.51 328.5" fill="#009929"/><rect x="985.5" y="328.5" width="82.13" height="82.13" fill="#019a2a"/><path d="M 985.5 410.63 A 82.13 82.13 0 0 1  1067.63 328.5 L 985.5 410.63 A 82.13 82.13 0 0 0 1067.63 328.5" fill="#009929"/><rect x="1067.625" y="328.5" width="82.125" height="82.125" fill="#009929"/><rect x="1067.63" y="328.5" width="41.06" height="41.06" fill="#009929"/><path d="M 1067.63 369.56 A 41.06 41.06 0 0 0 1108.69 328.5 L 1067.63 328.5" fill="#009929"/><rect x="1108.69" y="328.5" width="41.06" height="41.06" fill="#0aa032"/><path d="M 1108.69 328.5 A 41.06 41.06 0 0 1 1149.75 369.56 L 1108.69 369.56" fill="#009929"/><rect x="1067.63" y="369.56" width="41.06" height="41.06" fill="#009929"/><path d="M 1067.63 410.62 A 41.06 41.06 0 0 1  1108.69 369.56 L 1067.63 410.62 A 41.06 41.06 0 0 0 1108.69 369.56" fill="#009929"/><rect x="1108.69" y="369.56" width="41.06" height="41.06" fill="#009929"/><path d="M 1108.69 369.56 A 41.06 41.06 0 0 1 1149.75 410.62 L 1108.69 410.62" fill="#009929"/><rect x="1149.75" y="328.5" width="82.125" height="82.125" fill="#009929"/><rect x="1149.75" y="328.5" width="41.06" height="41.06" fill="#009929"/><path d="M 1149.75 369.56 A 41.06 41.06 0 0 1  1190.81 328.5 L 1149.75 369.56 A 41.06 41.06 0 0 0 1190.81 328.5" fill="#98f8ad"/><rect x="1190.81" y="328.5" width="41.06" height="41.06" fill="#009929"/><path d="M 1190.81 369.56 A 41.06 41.06 0 0 0 1231.87 328.5 L 1190.81 328.5" fill="#009929"/><rect x="1149.75" y="369.56" width="41.06" height="41.06" fill="#12a439"/><path d="M 1149.75 369.56 A 41.06 41.06 0 0 1  1190.81 410.62 L 1149.75 369.56 A 41.06 41.06 0 0 0 1190.81 410.62" fill="#63d77f"/><rect x="1190.81" y="369.56" width="41.06" height="41.06" fill="#009929"/><path d="M 1190.81 410.62 A 41.06 41.06 0 0 1  1231.87 369.56 L 1190.81 410.62 A 41.06 41.06 0 0 0 1231.87 369.56" fill="#5cd279"/><rect x="1231.875" y="328.5" width="82.125" height="82.125" fill="#009929"/><rect x="1231.88" y="328.5" width="41.06" height="41.06" fill="#009929"/><path d="M 1231.88 328.5 A 41.06 41.06 0 0 1 1272.94 369.56 L 1231.88 369.56" fill="#009929"/><rect x="1272.94" y="328.5" width="41.06" height="41.06" fill="#1aa940"/><path d="M 1272.94 328.5 A 41.06 41.06 0 0 0 1314 369.56 L 1314 328.5" fill="#55ce73"/><rect x="1231.88" y="369.56" width="41.06" height="41.06" fill="#15a63b"/><path d="M 1231.88 410.62 A 41.06 41.06 0 0 1  1272.94 369.56 L 1231.88 410.62 A 41.06 41.06 0 0 0 1272.94 369.56" fill="#009929"/><rect x="1272.94" y="369.56" width="41.06" height="41.06" fill="#5fd57c"/><path d="M 1272.94 410.62 A 41.06 41.06 0 0 0 1314 369.56 L 1272.94 369.56" fill="#009929"/><rect x="0" y="410.625" width="82.125" height="82.125" fill="#009929"/><rect x="0" y="410.63" width="41.06" height="41.06" fill="#009929"/><path d="M 0 410.63 A 41.06 41.06 0 0 1 41.06 451.69 L 0 451.69" fill="#009929"/><rect x="41.06" y="410.63" width="41.06" height="41.06" fill="#72e08c"/><path d="M 41.06 410.63 A 41.06 41.06 0 0 1  82.12 451.69 L 41.06 410.63 A 41.06 41.06 0 0 0 82.12 451.69" fill="#59d176"/><rect x="0" y="451.69" width="41.06" height="41.06" fill="#32b854"/><path d="M 0 451.69 A 41.06 41.06 0 0 1 41.06 492.75 L 0 492.75" fill="#009929"/><rect x="41.06" y="451.69" width="41.06" height="41.06" fill="#56cf74"/><path d="M 41.06 451.69 A 41.06 41.06 0 0 1  82.12 492.75 L 41.06 451.69 A 41.06 41.06 0 0 0 82.12 492.75" fill="#009929"/><rect x="82.125" y="410.625" width="82.125" height="82.125" fill="#009929"/><rect x="82.13" y="410.63" width="41.06" height="41.06" fill="#009929"/><path d="M 82.13 410.63 A 41.06 41.06 0 0 1 123.19 451.69 L 82.13 451.69" fill="#44c364"/><rect x="123.19" y="410.63" width="41.06" height="41.06" fill="#0ea236"/><path d="M 123.19 410.63 A 41.06 41.06 0 0 0 164.25 451.69 L 164.25 410.63" fill="#009929"/><rect x="82.13" y="451.69" width="41.06" height="41.06" fill="#92f4a8"/><path d="M 82.13 451.69 A 41.06 41.06 0 0 1  123.19 492.75 L 82.13 451.69 A 41.06 41.06 0 0 0 123.19 492.75" fill="#26b14a"/><rect x="123.19" y="451.69" width="41.06" height="41.06" fill="#41c262"/><path d="M 123.19 451.69 A 41.06 41.06 0 0 1  164.25 492.75 L 123.19 451.69 A 41.06 41.06 0 0 0 164.25 492.75" fill="#94f5aa"/><rect x="164.25" y="410.625" width="82.125" height="82.125" fill="#009929"/><rect x="164.25" y="410.63" width="41.06" height="41.06" fill="#009929"/><path d="M 164.25 410.63 A 41.06 41.06 0 0 1  205.31 451.69 L 164.25 410.63 A 41.06 41.06 0 0 0 205.31 451.69" fill="#2fb752"/><rect x="205.31" y="410.63" width="41.06" height="41.06" fill="#8ef2a5"/><path d="M 205.31 451.69 A 41.06 41.06 0 0 1  246.37 410.63 L 205.31 451.69 A 41.06 41.06 0 0 0 246.37 410.63" fill="#009929"/><rect x="164.25" y="451.69" width="41.06" height="41.06" fill="#61d67e"/><path d="M 164.25 451.69 A 41.06 41.06 0 0 1 205.31 492.75 L 164.25 492.75" fill="#31b753"/><rect x="205.31" y="451.69" width="41.06" height="41.06" fill="#55ce73"/><path d="M 205.31 451.69 A 41.06 41.06 0 0 0 246.37 492.75 L 246.37 451.69" fill="#6cdc87"/><rect x="246.375" y="410.625" width="82.125" height="82.125" fill="#009929"/><rect x="246.38" y="410.63" width="41.06" height="41.06" fill="#009929"/><path d="M 246.38 410.63 A 41.06 41.06 0 0 1 287.44 451.69 L 246.38 451.69" fill="#74e18e"/><rect x="287.44" y="410.63" width="41.06" height="41.06" fill="#37bc59"/><path d="M 287.44 451.69 A 41.06 41.06 0 0 1  328.5 410.63 L 328.5 451.69" fill="#6bdc86"/><rect x="246.38" y="451.69" width="41.06" height="41.06" fill="#22ae47"/><path d="M 246.38 451.69 A 41.06 41.06 0 0 0 287.44 492.75 L 287.44 451.69" fill="#009929"/><rect x="287.44" y="451.69" width="41.06" height="41.06" fill="#009929"/><path d="M 287.44 451.69 A 41.06 41.06 0 0 1 328.5 492.75 L 287.44 492.75" fill="#009929"/><rect x="328.5" y="410.625" width="82.125" height="82.125" fill="#009929"/><rect x="328.5" y="410.63" width="41.06" height="41.06" fill="#009929"/><path d="M 328.5 410.63 A 41.06 41.06 0 0 1  369.56 451.69 L 328.5 410.63 A 41.06 41.06 0 0 0 369.56 451.69" fill="#009929"/><rect x="369.56" y="410.63" width="41.06" height="41.06" fill="#009929"/><path d="M 369.56 451.69 A 41.06 41.06 0 0 1  410.62 410.63 L 369.56 451.69 A 41.06 41.06 0 0 0 410.62 410.63" fill="#009929"/><rect x="328.5" y="451.69" width="41.06" height="41.06" fill="#009929"/><path d="M 328.5 492.75 A 41.06 41.06 0 0 1  369.56 451.69 L 369.56 492.75" fill="#009929"/><rect x="369.56" y="451.69" width="41.06" height="41.06" fill="#009929"/><path d="M 369.56 451.69 A 41.06 41.06 0 0 0 410.62 492.75 L 410.62 451.69" fill="#009929"/><rect x="410.625" y="410.625" width="82.125" height="82.125" fill="#009929"/><rect x="410.63" y="410.63" width="41.06" height="41.06" fill="#009929"/><path d="M 410.63 451.69 A 41.06 41.06 0 0 1  451.69 410.63 L 410.63 451.69 A 41.06 41.06 0 0 0 451.69 410.63" fill="#79e592"/><rect x="451.69" y="410.63" width="41.06" height="41.06" fill="#009929"/><path d="M 451.69 410.63 A 41.06 41.06 0 0 1 492.75 451.69 L 451.69 451.69" fill="#009929"/><rect x="410.63" y="451.69" width="41.06" height="41.06" fill="#009929"/><path d="M 410.63 451.69 A 41.06 41.06 0 0 0 451.69 492.75 L 451.69 451.69" fill="#009929"/><rect x="451.69" y="451.69" width="41.06" height="41.06" fill="#009929"/><path d="M 451.69 451.69 A 41.06 41.06 0 0 1  492.75 492.75 L 451.69 451.69 A 41.06 41.06 0 0 0 492.75 492.75" fill="#009929"/><rect x="492.75" y="410.625" width="82.125" height="82.125" fill="#009929"/><rect x="492.75" y="410.63" width="41.06" height="41.06" fill="#1dab42"/><path d="M 492.75 451.69 A 41.06 41.06 0 0 1  533.81 410.63 L 533.81 451.69" fill="#53cd71"/><rect x="533.81" y="410.63" width="41.06" height="41.06" fill="#009929"/><path d="M 533.81 451.69 A 41.06 41.06 0 0 0 574.8699999999999 410.63 L 533.81 410.63" fill="#8df1a4"/><rect x="492.75" y="451.69" width="41.06" height="41.06" fill="#9af9af"/><path d="M 492.75 451.69 A 41.06 41.06 0 0 1 533.81 492.75 L 492.75 492.75" fill="#009929"/><rect x="533.81" y="451.69" width="41.06" height="41.06" fill="#009929"/><path d="M 533.81 492.75 A 41.06 41.06 0 0 1  574.8699999999999 451.69 L 574.8699999999999 492.75" fill="#029a2b"/><rect x="574.875" y="410.625" width="82.125" height="82.125" fill="#009929"/><rect x="574.88" y="410.63" width="41.06" height="41.06" fill="#6adb86"/><path d="M 574.88 410.63 A 41.06 41.06 0 0 0 615.94 451.69 L 615.94 410.63" fill="#38bc5a"/><rect x="615.94" y="410.63" width="41.06" height="41.06" fill="#1cab42"/><path d="M 615.94 410.63 A 41.06 41.06 0 0 1 657 451.69 L 615.94 451.69" fill="#5bd278"/><rect x="574.88" y="451.69" width="41.06" height="41.06" fill="#3cbe5d"/><path d="M 574.88 451.69 A 41.06 41.06 0 0 1  615.94 492.75 L 574.88 451.69 A 41.06 41.06 0 0 0 615.94 492.75" fill="#4cc86b"/><rect x="615.94" y="451.69" width="41.06" height="41.06" fill="#009929"/><path d="M 615.94 451.69 A 41.06 41.06 0 0 0 657 492.75 L 657 451.69" fill="#009929"/><rect x="657" y="410.63" width="82.13" height="82.13" fill="#009929"/><path d="M 657 492.76 A 82.13 82.13 0 0 1  739.13 410.63 L 657 492.76 A 82.13 82.13 0 0 0 739.13 410.63" fill="#3fc060"/><rect x="739.13" y="410.63" width="82.13" height="82.13" fill="#30b753"/><path d="M 739.13 410.63 A 82.13 82.13 0 0 1  821.26 492.76 L 739.13 410.63 A 82.13 82.13 0 0 0 821.26 492.76" fill="#36bb58"/><rect x="821.25" y="410.625" width="82.125" height="82.125" fill="#009929"/><rect x="821.25" y="410.63" width="41.06" height="41.06" fill="#009929"/><path d="M 821.25 410.63 A 41.06 41.06 0 0 0 862.31 451.69 L 862.31 410.63" fill="#009929"/><rect x="862.31" y="410.63" width="41.06" height="41.06" fill="#6bdc86"/><path d="M 862.31 451.69 A 41.06 41.06 0 0 1  903.3699999999999 410.63 L 903.3699999999999 451.69" fill="#76e38f"/><rect x="821.25" y="451.69" width="41.06" height="41.06" fill="#009929"/><path d="M 821.25 492.75 A 41.06 41.06 0 0 0 862.31 451.69 L 821.25 451.69" fill="#15a63b"/><rect x="862.31" y="451.69" width="41.06" height="41.06" fill="#3dbf5e"/><path d="M 862.31 492.75 A 41.06 41.06 0 0 0 903.3699999999999 451.69 L 862.31 451.69" fill="#089e30"/><rect x="903.38" y="410.63" width="82.13" height="82.13" fill="#2ab34d"/><path d="M 903.38 492.76 A 82.13 82.13 0 0 1  985.51 410.63 L 985.51 492.76" fill="#2db550"/><rect x="985.5" y="410.63" width="82.13" height="82.13" fill="#009929"/><path d="M 985.5 492.76 A 82.13 82.13 0 0 1  1067.63 410.63 L 985.5 492.76 A 82.13 82.13 0 0 0 1067.63 410.63" fill="#77e390"/><rect x="1067.63" y="410.63" width="82.13" height="82.13" fill="#82eb9a"/><path d="M 1067.63 410.63 A 82.13 82.13 0 0 1 1149.7600000000002 492.76 L 1067.63 492.76" fill="#009929"/><rect x="1149.75" y="410.625" width="82.125" height="82.125" fill="#009929"/><rect x="1149.75" y="410.63" width="41.06" height="41.06" fill="#039b2b"/><path d="M 1149.75 410.63 A 41.06 41.06 0 0 1  1190.81 451.69 L 1149.75 410.63 A 41.06 41.06 0 0 0 1190.81 451.69" fill="#3cbf5d"/><rect x="1190.81" y="410.63" width="41.06" height="41.06" fill="#69db84"/><path d="M 1190.81 451.69 A 41.06 41.06 0 0 1  1231.87 410.63 L 1190.81 451.69 A 41.06 41.06 0 0 0 1231.87 410.63" fill="#009929"/><rect x="1149.75" y="451.69" width="41.06" height="41.06" fill="#009929"/><path d="M 1149.75 451.69 A 41.06 41.06 0 0 1  1190.81 492.75 L 1149.75 451.69 A 41.06 41.06 0 0 0 1190.81 492.75" fill="#009929"/><rect x="1190.81" y="451.69" width="41.06" height="41.06" fill="#009929"/><path d="M 1190.81 492.75 A 41.06 41.06 0 0 1  1231.87 451.69 L 1231.87 492.75" fill="#49c769"/><rect x="1231.875" y="410.625" width="82.125" height="82.125" fill="#009929"/><rect x="1231.88" y="410.63" width="41.06" height="41.06" fill="#54cd72"/><path d="M 1231.88 451.69 A 41.06 41.06 0 0 0 1272.94 410.63 L 1231.88 410.63" fill="#22ae47"/><rect x="1272.94" y="410.63" width="41.06" height="41.06" fill="#009929"/><path d="M 1272.94 451.69 A 41.06 41.06 0 0 1  1314 410.63 L 1272.94 451.69 A 41.06 41.06 0 0 0 1314 410.63" fill="#75e28f"/><rect x="1231.88" y="451.69" width="41.06" height="41.06" fill="#8cf1a3"/><path d="M 1231.88 492.75 A 41.06 41.06 0 0 1  1272.94 451.69 L 1272.94 492.75" fill="#81ea99"/><rect x="1272.94" y="451.69" width="41.06" height="41.06" fill="#009929"/><path d="M 1272.94 451.69 A 41.06 41.06 0 0 1 1314 492.75 L 1272.94 492.75" fill="#009929"/><rect x="0" y="492.75" width="82.13" height="82.13" fill="#7be694"/><path d="M 0 492.75 A 82.13 82.13 0 0 1  82.13 574.88 L 0 492.75 A 82.13 82.13 0 0 0 82.13 574.88" fill="#009929"/><rect x="82.125" y="492.75" width="82.125" height="82.125" fill="#009929"/><rect x="82.13" y="492.75" width="41.06" height="41.06" fill="#009929"/><path d="M 82.13 492.75 A 41.06 41.06 0 0 1  123.19 533.81 L 82.13 492.75 A 41.06 41.06 0 0 0 123.19 533.81" fill="#3cbe5d"/><rect x="123.19" y="492.75" width="41.06" height="41.06" fill="#009929"/><path d="M 123.19 533.81 A 41.06 41.06 0 0 1  164.25 492.75 L 164.25 533.81" fill="#009929"/><rect x="82.13" y="533.81" width="41.06" height="41.06" fill="#58d076"/><path d="M 82.13 533.81 A 41.06 41.06 0 0 1 123.19 574.8699999999999 L 82.13 574.8699999999999" fill="#009929"/><rect x="123.19" y="533.81" width="41.06" height="41.06" fill="#7fe897"/><path d="M 123.19 533.81 A 41.06 41.06 0 0 0 164.25 574.8699999999999 L 164.25 533.81" fill="#72e08c"/><rect x="164.25" y="492.75" width="82.125" height="82.125" fill="#009929"/><rect x="164.25" y="492.75" width="41.06" height="41.06" fill="#009929"/><path d="M 164.25 533.81 A 41.06 41.06 0 0 1  205.31 492.75 L 205.31 533.81" fill="#009929"/><rect x="205.31" y="492.75" width="41.06" height="41.06" fill="#48c667"/><path d="M 205.31 533.81 A 41.06 41.06 0 0 1  246.37 492.75 L 246.37 533.81" fill="#009929"/><rect x="164.25" y="533.81" width="41.06" height="41.06" fill="#009929"/><path d="M 164.25 574.8699999999999 A 41.06 41.06 0 0 1  205.31 533.81 L 164.25 574.8699999999999 A 41.06 41.06 0 0 0 205.31 533.81" fill="#009929"/><rect x="205.31" y="533.81" width="41.06" height="41.06" fill="#31b854"/><path d="M 205.31 533.81 A 41.06 41.06 0 0 1 246.37 574.8699999999999 L 205.31 574.8699999999999" fill="#009929"/><rect x="246.38" y="492.75" width="82.13" height="82.13" fill="#99f9ae"/><path d="M 246.38 492.75 A 82.13 82.13 0 0 1  328.51 574.88 L 246.38 492.75 A 82.13 82.13 0 0 0 328.51 574.88" fill="#1caa41"/><rect x="328.5" y="492.75" width="82.13" height="82.13" fill="#009929"/><path d="M 328.5 492.75 A 82.13 82.13 0 0 1 410.63 574.88 L 328.5 574.88" fill="#009929"/><rect x="410.63" y="492.75" width="82.13" height="82.13" fill="#009929"/><path d="M 410.63 574.88 A 82.13 82.13 0 0 1  492.76 492.75 L 492.76 574.88" fill="#009929"/><rect x="492.75" y="492.75" width="82.125" height="82.125" fill="#009929"/><rect x="492.75" y="492.75" width="41.06" height="41.06" fill="#009929"/><path d="M 492.75 533.81 A 41.06 41.06 0 0 1  533.81 492.75 L 533.81 533.81" fill="#009929"/><rect x="533.81" y="492.75" width="41.06" height="41.06" fill="#41c161"/><path d="M 533.81 492.75 A 41.06 41.06 0 0 1 574.8699999999999 533.81 L 533.81 533.81" fill="#84ec9c"/><rect x="492.75" y="533.81" width="41.06" height="41.06" fill="#009929"/><path d="M 492.75 533.81 A 41.06 41.06 0 0 0 533.81 574.8699999999999 L 533.81 533.81" fill="#6bdc86"/><rect x="533.81" y="533.81" width="41.06" height="41.06" fill="#46c566"/><path d="M 533.81 574.8699999999999 A 41.06 41.06 0 0 0 574.8699999999999 533.81 L 533.81 533.81" fill="#099f31"/><rect x="574.875" y="492.75" width="82.125" height="82.125" fill="#009929"/><rect x="574.88" y="492.75" width="41.06" height="41.06" fill="#19a93f"/><path d="M 574.88 492.75 A 41.06 41.06 0 0 1  615.94 533.81 L 574.88 492.75 A 41.06 41.06 0 0 0 615.94 533.81" fill="#79e592"/><rect x="615.94" y="492.75" width="41.06" height="41.06" fill="#38bc59"/><path d="M 615.94 492.75 A 41.06 41.06 0 0 0 657 533.81 L 657 492.75" fill="#1baa41"/><rect x="574.88" y="533.81" width="41.06" height="41.06" fill="#9af9af"/><path d="M 574.88 574.8699999999999 A 41.06 41.06 0 0 1  615.94 533.81 L 574.88 574.8699999999999 A 41.06 41.06 0 0 0 615.94 533.81" fill="#7ee897"/><rect x="615.94" y="533.81" width="41.06" height="41.06" fill="#009929"/><path d="M 615.94 574.8699999999999 A 41.06 41.06 0 0 0 657 533.81 L 615.94 533.81" fill="#2eb651"/><rect x="657" y="492.75" width="82.125" height="82.125" fill="#009929"/><rect x="657" y="492.75" width="41.06" height="41.06" fill="#7be694"/><path d="M 657 533.81 A 41.06 41.06 0 0 1  698.06 492.75 L 698.06 533.81" fill="#47c567"/><rect x="698.06" y="492.75" width="41.06" height="41.06" fill="#10a337"/><path d="M 698.06 492.75 A 41.06 41.06 0 0 0 739.1199999999999 533.81 L 739.1199999999999 492.75" fill="#009929"/><rect x="657" y="533.81" width="41.06" height="41.06" fill="#5bd278"/><path d="M 657 574.8699999999999 A 41.06 41.06 0 0 1  698.06 533.81 L 698.06 574.8699999999999" fill="#26b14a"/><rect x="698.06" y="533.81" width="41.06" height="41.06" fill="#48c668"/><path d="M 698.06 533.81 A 41.06 41.06 0 0 1 739.1199999999999 574.8699999999999 L 698.06 574.8699999999999" fill="#009929"/><rect x="739.13" y="492.75" width="82.13" height="82.13" fill="#2fb752"/><path d="M 739.13 492.75 A 82.13 82.13 0 0 0 821.26 574.88 L 821.26 492.75" fill="#7ce795"/><rect x="821.25" y="492.75" width="82.13" height="82.13" fill="#009929"/><path d="M 821.25 574.88 A 82.13 82.13 0 0 0 903.38 492.75 L 821.25 492.75" fill="#80e999"/><rect x="903.38" y="492.75" width="82.13" height="82.13" fill="#009929"/><path d="M 903.38 492.75 A 82.13 82.13 0 0 1  985.51 574.88 L 903.38 492.75 A 82.13 82.13 0 0 0 985.51 574.88" fill="#57cf75"/><rect x="985.5" y="492.75" width="82.125" height="82.125" fill="#009929"/><rect x="985.5" y="492.75" width="41.06" height="41.06" fill="#25b049"/><path d="M 985.5 492.75 A 41.06 41.06 0 0 1 1026.56 533.81 L 985.5 533.81" fill="#6cdd87"/><rect x="1026.56" y="492.75" width="41.06" height="41.06" fill="#6fde89"/><path d="M 1026.56 533.81 A 41.06 41.06 0 0 1  1067.62 492.75 L 1067.62 533.81" fill="#009929"/><rect x="985.5" y="533.81" width="41.06" height="41.06" fill="#50cb6f"/><path d="M 985.5 574.8699999999999 A 41.06 41.06 0 0 0 1026.56 533.81 L 985.5 533.81" fill="#009929"/><rect x="1026.56" y="533.81" width="41.06" height="41.06" fill="#009929"/><path d="M 1026.56 533.81 A 41.06 41.06 0 0 1 1067.62 574.8699999999999 L 1026.56 574.8699999999999" fill="#9bfab0"/><rect x="1067.63" y="492.75" width="82.13" height="82.13" fill="#2bb44f"/><path d="M 1067.63 492.75 A 82.13 82.13 0 0 1  1149.7600000000002 574.88 L 1067.63 492.75 A 82.13 82.13 0 0 0 1149.7600000000002 574.88" fill="#009929"/><rect x="1149.75" y="492.75" width="82.13" height="82.13" fill="#22ae47"/><path d="M 1149.75 492.75 A 82.13 82.13 0 0 0 1231.88 574.88 L 1231.88 492.75" fill="#73e18d"/><rect x="1231.88" y="492.75" width="82.13" height="82.13" fill="#009929"/><path d="M 1231.88 492.75 A 82.13 82.13 0 0 1 1314.0100000000002 574.88 L 1231.88 574.88" fill="#009929"/><rect x="0" y="574.875" width="82.125" height="82.125" fill="#009929"/><rect x="0" y="574.88" width="41.06" height="41.06" fill="#009929"/><path d="M 0 574.88 A 41.06 41.06 0 0 1 41.06 615.94 L 0 615.94" fill="#5ed47b"/><rect x="41.06" y="574.88" width="41.06" height="41.06" fill="#059c2d"/><path d="M 41.06 574.88 A 41.06 41.06 0 0 0 82.12 615.94 L 82.12 574.88" fill="#45c465"/><rect x="0" y="615.94" width="41.06" height="41.06" fill="#58d076"/><path d="M 0 615.94 A 41.06 41.06 0 0 1 41.06 657 L 0 657" fill="#2eb651"/><rect x="41.06" y="615.94" width="41.06" height="41.06" fill="#009929"/><path d="M 41.06 657 A 41.06 41.06 0 0 0 82.12 615.94 L 41.06 615.94" fill="#009929"/><rect x="82.125" y="574.875" width="82.125" height="82.125" fill="#009929"/><rect x="82.13" y="574.88" width="41.06" height="41.06" fill="#21ae46"/><path d="M 82.13 574.88 A 41.06 41.06 0 0 1 123.19 615.94 L 82.13 615.94" fill="#28b24c"/><rect x="123.19" y="574.88" width="41.06" height="41.06" fill="#10a337"/><path d="M 123.19 615.94 A 41.06 41.06 0 0 1  164.25 574.88 L 123.19 615.94 A 41.06 41.06 0 0 0 164.25 574.88" fill="#52cc70"/><rect x="82.13" y="615.94" width="41.06" height="41.06" fill="#009929"/><path d="M 82.13 657 A 41.06 41.06 0 0 1  123.19 615.94 L 123.19 657" fill="#0ca033"/><rect x="123.19" y="615.94" width="41.06" height="41.06" fill="#99f9ae"/><path d="M 123.19 615.94 A 41.06 41.06 0 0 0 164.25 657 L 164.25 615.94" fill="#009929"/><rect x="164.25" y="574.875" width="82.125" height="82.125" fill="#009929"/><rect x="164.25" y="574.88" width="41.06" height="41.06" fill="#44c465"/><path d="M 164.25 615.94 A 41.06 41.06 0 0 1  205.31 574.88 L 205.31 615.94" fill="#5dd37a"/><rect x="205.31" y="574.88" width="41.06" height="41.06" fill="#009929"/><path d="M 205.31 574.88 A 41.06 41.06 0 0 1 246.37 615.94 L 205.31 615.94" fill="#4cc86b"/><rect x="164.25" y="615.94" width="41.06" height="41.06" fill="#85ec9d"/><path d="M 164.25 657 A 41.06 41.06 0 0 0 205.31 615.94 L 164.25 615.94" fill="#3bbe5d"/><rect x="205.31" y="615.94" width="41.06" height="41.06" fill="#009929"/><path d="M 205.31 657 A 41.06 41.06 0 0 1  246.37 615.94 L 205.31 657 A 41.06 41.06 0 0 0 246.37 615.94" fill="#88eea0"/><rect x="246.375" y="574.875" width="82.125" height="82.125" fill="#009929"/><rect x="246.38" y="574.88" width="41.06" height="41.06" fill="#4fca6e"/><path d="M 246.38 574.88 A 41.06 41.06 0 0 1 287.44 615.94 L 246.38 615.94" fill="#37bb59"/><rect x="287.44" y="574.88" width="41.06" height="41.06" fill="#009929"/><path d="M 287.44 574.88 A 41.06 41.06 0 0 0 328.5 615.94 L 328.5 574.88" fill="#34ba56"/><rect x="246.38" y="615.94" width="41.06" height="41.06" fill="#31b854"/><path d="M 246.38 615.94 A 41.06 41.06 0 0 0 287.44 657 L 287.44 615.94" fill="#39bd5b"/><rect x="287.44" y="615.94" width="41.06" height="41.06" fill="#5fd47c"/><path d="M 287.44 615.94 A 41.06 41.06 0 0 1 328.5 657 L 287.44 657" fill="#009929"/><rect x="328.5" y="574.875" width="82.125" height="82.125" fill="#009929"/><rect x="328.5" y="574.88" width="41.06" height="41.06" fill="#009929"/><path d="M 328.5 615.94 A 41.06 41.06 0 0 0 369.56 574.88 L 328.5 574.88" fill="#0da135"/><rect x="369.56" y="574.88" width="41.06" height="41.06" fill="#95f6ab"/><path d="M 369.56 574.88 A 41.06 41.06 0 0 0 410.62 615.94 L 410.62 574.88" fill="#81e999"/><rect x="328.5" y="615.94" width="41.06" height="41.06" fill="#36bb58"/><path d="M 328.5 615.94 A 41.06 41.06 0 0 1  369.56 657 L 328.5 615.94 A 41.06 41.06 0 0 0 369.56 657" fill="#1caa41"/><rect x="369.56" y="615.94" width="41.06" height="41.06" fill="#009929"/><path d="M 369.56 657 A 41.06 41.06 0 0 0 410.62 615.94 L 369.56 615.94" fill="#009929"/><rect x="410.63" y="574.88" width="82.13" height="82.13" fill="#3abd5b"/><path d="M 410.63 574.88 A 82.13 82.13 0 0 1 492.76 657.01 L 410.63 657.01" fill="#009929"/><rect x="492.75" y="574.875" width="82.125" height="82.125" fill="#009929"/><rect x="492.75" y="574.88" width="41.06" height="41.06" fill="#009929"/><path d="M 492.75 574.88 A 41.06 41.06 0 0 1  533.81 615.94 L 492.75 574.88 A 41.06 41.06 0 0 0 533.81 615.94" fill="#009929"/><rect x="533.81" y="574.88" width="41.06" height="41.06" fill="#009929"/><path d="M 533.81 574.88 A 41.06 41.06 0 0 1  574.8699999999999 615.94 L 533.81 574.88 A 41.06 41.06 0 0 0 574.8699999999999 615.94" fill="#009929"/><rect x="492.75" y="615.94" width="41.06" height="41.06" fill="#93f5a9"/><path d="M 492.75 615.94 A 41.06 41.06 0 0 1 533.81 657 L 492.75 657" fill="#18a83e"/><rect x="533.81" y="615.94" width="41.06" height="41.06" fill="#009929"/><path d="M 533.81 615.94 A 41.06 41.06 0 0 1 574.8699999999999 657 L 533.81 657" fill="#97f7ac"/><rect x="574.88" y="574.88" width="82.13" height="82.13" fill="#009929"/><path d="M 574.88 657.01 A 82.13 82.13 0 0 0 657.01 574.88 L 574.88 574.88" fill="#009929"/><rect x="657" y="574.88" width="82.13" height="82.13" fill="#36bb58"/><path d="M 657 574.88 A 82.13 82.13 0 0 0 739.13 657.01 L 739.13 574.88" fill="#049c2d"/><rect x="739.13" y="574.88" width="82.13" height="82.13" fill="#009929"/><path d="M 739.13 657.01 A 82.13 82.13 0 0 1  821.26 574.88 L 821.26 657.01" fill="#34ba56"/><rect x="821.25" y="574.875" width="82.125" height="82.125" fill="#009929"/><rect x="821.25" y="574.88" width="41.06" height="41.06" fill="#76e38f"/><path d="M 821.25 615.94 A 41.06 41.06 0 0 0 862.31 574.88 L 821.25 574.88" fill="#009929"/><rect x="862.31" y="574.88" width="41.06" height="41.06" fill="#5bd278"/><path d="M 862.31 615.94 A 41.06 41.06 0 0 1  903.3699999999999 574.88 L 862.31 615.94 A 41.06 41.06 0 0 0 903.3699999999999 574.88" fill="#009929"/><rect x="821.25" y="615.94" width="41.06" height="41.06" fill="#34ba57"/><path d="M 821.25 615.94 A 41.06 41.06 0 0 1 862.31 657 L 821.25 657" fill="#41c161"/><rect x="862.31" y="615.94" width="41.06" height="41.06" fill="#34ba56"/><path d="M 862.31 615.94 A 41.06 41.06 0 0 1  903.3699999999999 657 L 862.31 615.94 A 41.06 41.06 0 0 0 903.3699999999999 657" fill="#2fb652"/><rect x="903.375" y="574.875" width="82.125" height="82.125" fill="#009929"/><rect x="903.38" y="574.88" width="41.06" height="41.06" fill="#0a9f31"/><path d="M 903.38 574.88 A 41.06 41.06 0 0 0 944.44 615.94 L 944.44 574.88" fill="#1dab42"/><rect x="944.44" y="574.88" width="41.06" height="41.06" fill="#009929"/><path d="M 944.44 574.88 A 41.06 41.06 0 0 1  985.5 615.94 L 944.44 574.88 A 41.06 41.06 0 0 0 985.5 615.94" fill="#009929"/><rect x="903.38" y="615.94" width="41.06" height="41.06" fill="#009929"/><path d="M 903.38 657 A 41.06 41.06 0 0 0 944.44 615.94 L 903.38 615.94" fill="#009929"/><rect x="944.44" y="615.94" width="41.06" height="41.06" fill="#009929"/><path d="M 944.44 657 A 41.06 41.06 0 0 1  985.5 615.94 L 944.44 657 A 41.06 41.06 0 0 0 985.5 615.94" fill="#26b14a"/><rect x="985.5" y="574.875" width="82.125" height="82.125" fill="#009929"/><rect x="985.5" y="574.88" width="41.06" height="41.06" fill="#4bc86a"/><path d="M 985.5 574.88 A 41.06 41.06 0 0 1  1026.56 615.94 L 985.5 574.88 A 41.06 41.06 0 0 0 1026.56 615.94" fill="#009929"/><rect x="1026.56" y="574.88" width="41.06" height="41.06" fill="#009929"/><path d="M 1026.56 574.88 A 41.06 41.06 0 0 1  1067.62 615.94 L 1026.56 574.88 A 41.06 41.06 0 0 0 1067.62 615.94" fill="#12a439"/><rect x="985.5" y="615.94" width="41.06" height="41.06" fill="#009929"/><path d="M 985.5 615.94 A 41.06 41.06 0 0 1  1026.56 657 L 985.5 615.94 A 41.06 41.06 0 0 0 1026.56 657" fill="#039b2c"/><rect x="1026.56" y="615.94" width="41.06" height="41.06" fill="#2fb752"/><path d="M 1026.56 615.94 A 41.06 41.06 0 0 1  1067.62 657 L 1026.56 615.94 A 41.06 41.06 0 0 0 1067.62 657" fill="#009929"/><rect x="1067.625" y="574.875" width="82.125" height="82.125" fill="#009929"/><rect x="1067.63" y="574.88" width="41.06" height="41.06" fill="#009929"/><path d="M 1067.63 615.94 A 41.06 41.06 0 0 1  1108.69 574.88 L 1108.69 615.94" fill="#17a73d"/><rect x="1108.69" y="574.88" width="41.06" height="41.06" fill="#009929"/><path d="M 1108.69 615.94 A 41.06 41.06 0 0 0 1149.75 574.88 L 1108.69 574.88" fill="#74e28e"/><rect x="1067.63" y="615.94" width="41.06" height="41.06" fill="#009929"/><path d="M 1067.63 615.94 A 41.06 41.06 0 0 1  1108.69 657 L 1067.63 615.94 A 41.06 41.06 0 0 0 1108.69 657" fill="#2db550"/><rect x="1108.69" y="615.94" width="41.06" height="41.06" fill="#009929"/><path d="M 1108.69 657 A 41.06 41.06 0 0 0 1149.75 615.94 L 1108.69 615.94" fill="#009929"/><rect x="1149.75" y="574.88" width="82.13" height="82.13" fill="#8ff2a5"/><path d="M 1149.75 657.01 A 82.13 82.13 0 0 0 1231.88 574.88 L 1149.75 574.88" fill="#91f4a7"/><rect x="1231.875" y="574.875" width="82.125" height="82.125" fill="#009929"/><rect x="1231.88" y="574.88" width="41.06" height="41.06" fill="#009929"/><path d="M 1231.88 615.94 A 41.06 41.06 0 0 1  1272.94 574.88 L 1231.88 615.94 A 41.06 41.06 0 0 0 1272.94 574.88" fill="#009929"/><rect x="1272.94" y="574.88" width="41.06" height="41.06" fill="#009929"/><path d="M 1272.94 615.94 A 41.06 41.06 0 0 1  1314 574.88 L 1272.94 615.94 A 41.06 41.06 0 0 0 1314 574.88" fill="#64d880"/><rect x="1231.88" y="615.94" width="41.06" height="41.06" fill="#009929"/><path d="M 1231.88 615.94 A 41.06 41.06 0 0 1 1272.94 657 L 1231.88 657" fill="#1fad44"/><rect x="1272.94" y="615.94" width="41.06" height="41.06" fill="#009929"/><path d="M 1272.94 657 A 41.06 41.06 0 0 1  1314 615.94 L 1314 657" fill="#009929"/></g></svg>